<mxfile host="app.diagrams.net" modified="2023-05-16T03:28:55.414Z" agent="Mozilla/5.0 (Windows NT 10.0; Win64; x64) AppleWebKit/537.36 (KHTML, like Gecko) Chrome/113.0.0.0 Safari/537.36" version="21.3.2" etag="vDRv0E9ZP2XWWQZZ2q-l" type="github">
  <diagram name="第 1 页" id="69bavuT4Y6ZkjZBTgYTI">
    <mxGraphModel>
      <root>
        <mxCell id="0" />
        <mxCell id="1" parent="0" />
      </root>
    </mxGraphModel>
  </diagram>
</mxfile>
